<svg width="20" height="20" viewBox="0 0 20 20" fill="none" xmlns="http://www.w3.org/2000/svg">
<path d="M19.0001 1.41L18.8801 0.150002L17.6801 0.550001C15.6235 1.26455 13.4273 1.48382 11.2701 1.19C9.00321 0.838213 6.68298 1.15082 4.59006 2.09C3.48054 2.56245 2.50681 3.30492 1.75754 4.24981C1.00826 5.1947 0.507227 6.31201 0.30006 7.5C0.0314393 9.03469 0.165822 10.6128 0.69006 12.08C1.02761 11.3181 1.42206 10.5827 1.87006 9.88C2.88626 8.38484 4.29434 7.19818 5.94006 6.45C7.5255 5.72613 9.25845 5.38365 11.0001 5.45C9.34208 5.7035 7.75506 6.29948 6.34006 7.2C5.65753 7.62885 5.03249 8.143 4.48006 8.73C3.95172 9.31672 3.48588 9.95684 3.09006 10.64C2.34659 12.068 1.81758 13.5978 1.52006 15.18C1.19937 16.7673 1.02531 18.3808 1.00006 20H3.00006C3.09406 18.5478 3.29122 17.1042 3.59006 15.68C4.97749 16.4292 6.53341 16.8113 8.11006 16.79C9.58054 16.789 11.0359 16.4932 12.3901 15.92C20.0001 12.67 19.0001 1.86 19.0001 1.41Z" fill="white"/>
</svg>
