<svg width="182" height="24" viewBox="0 0 182 24" fill="none" xmlns="http://www.w3.org/2000/svg">
<path d="M39.64 19.08C38.8133 19.08 38.08 18.9 37.44 18.54C36.8133 18.18 36.3867 17.4933 36.16 16.48L35.9 15.36H30.58L28.3 19H27.26L35.48 5.8H36.38L38.98 16.48C39.3 17.72 39.8733 18.3867 40.7 18.48L40.62 18.98C40.38 19.0467 40.0533 19.08 39.64 19.08ZM31.16 14.46H35.68L34.4 9.24L31.16 14.46ZM44.2534 23C43.2801 23 42.5334 22.8 42.0134 22.4C41.5068 22 41.1134 21.5 40.8334 20.9L41.5334 20.44C41.8534 20.9733 42.1934 21.38 42.5534 21.66C42.9268 21.9533 43.4134 22.1 44.0134 22.1C44.7734 22.1 45.4201 21.7867 45.9534 21.16C46.4868 20.5467 46.8668 19.5933 47.0934 18.3L47.1134 18.2C46.9268 18.32 46.7201 18.42 46.4934 18.5C46.0001 18.7 45.4668 18.8 44.8934 18.8C43.7068 18.8 42.8134 18.4867 42.2134 17.86C41.6134 17.2333 41.3134 16.38 41.3134 15.3C41.3134 14.34 41.5201 13.4067 41.9334 12.5C42.3468 11.58 42.9401 10.8333 43.7134 10.26C44.4868 9.68667 45.4001 9.4 46.4534 9.4C47.1468 9.4 47.6934 9.58667 48.0934 9.96C48.2934 10.1333 48.4468 10.3133 48.5534 10.5H48.6534L49.5134 9.6H51.2134L49.6934 18.3C49.4534 19.7267 48.8468 20.8667 47.8734 21.72C46.9134 22.5733 45.7068 23 44.2534 23ZM45.4534 17.9C45.9068 17.9 46.3334 17.8 46.7334 17.6C46.9334 17.5067 47.1068 17.4067 47.2534 17.3L48.2734 11.6C48.1934 11.36 48.0801 11.1467 47.9334 10.96C47.6001 10.52 47.1868 10.3 46.6934 10.3C46.0401 10.3 45.5068 10.62 45.0934 11.26C44.6801 11.9 44.3868 12.6533 44.2134 13.52C44.0401 14.3733 43.9534 15.1467 43.9534 15.84C43.9534 16.5067 44.0668 17.02 44.2934 17.38C44.5334 17.7267 44.9201 17.9 45.4534 17.9ZM60.0495 9.8C60.1962 9.93333 60.3162 10.1067 60.4095 10.32C60.5162 10.5333 60.5695 10.66 60.5695 10.7L59.4095 11.48C59.3562 11.36 59.2629 11.2333 59.1295 11.1C58.8629 10.8333 58.5429 10.7 58.1695 10.7C57.3829 10.7 56.7495 10.9067 56.2695 11.32C56.2562 11.3867 56.2495 11.4867 56.2495 11.62C56.2495 11.6867 56.2429 11.7867 56.2295 11.92C56.2295 12.0533 56.2162 12.1733 56.1895 12.28L55.0095 19H52.4095C52.9562 15.7733 53.2629 13.96 53.3295 13.56C53.5695 12.12 53.6895 11.36 53.6895 11.28C53.6895 10.9067 53.6029 10.6333 53.4295 10.46C53.2695 10.2867 52.9829 10.2 52.5695 10.2H52.3695L52.4695 9.6H54.4495C54.9029 9.6 55.2495 9.66 55.4895 9.78C55.7295 9.88667 55.9029 10.0733 56.0095 10.34C56.8495 9.71333 57.7429 9.4 58.6895 9.4C59.2629 9.4 59.7162 9.53333 60.0495 9.8ZM64.3517 19.2C63.1517 19.2 62.2117 18.8467 61.5317 18.14C60.8517 17.4333 60.5117 16.5067 60.5117 15.36C60.5117 14.3333 60.7384 13.3667 61.1917 12.46C61.6584 11.54 62.3117 10.8 63.1517 10.24C64.0051 9.68 64.9784 9.4 66.0717 9.4C67.2584 9.4 68.1784 9.62 68.8317 10.06C69.4851 10.4867 69.8117 11.08 69.8117 11.84C69.8117 12.9067 69.3651 13.7 68.4717 14.22C67.5784 14.74 66.5184 15 65.2917 15H63.1917C63.1117 15.4133 63.0717 15.7867 63.0717 16.12C63.0717 16.84 63.2251 17.3867 63.5317 17.76C63.8384 18.12 64.2651 18.3 64.8117 18.3C65.4517 18.3 66.0117 18.16 66.4917 17.88C66.9717 17.5867 67.4584 17.1733 67.9517 16.64L68.4917 17.1C67.9984 17.7 67.4251 18.2 66.7717 18.6C66.1317 19 65.3251 19.2 64.3517 19.2ZM65.4517 14.1C65.9451 14.1 66.3451 13.8533 66.6517 13.36C66.9584 12.8667 67.1117 12.3333 67.1117 11.76C67.1117 11.28 66.9917 10.92 66.7517 10.68C66.5251 10.4267 66.2451 10.3 65.9117 10.3C64.6317 10.3 63.7784 11.5667 63.3517 14.1H65.4517ZM74.508 19.2C73.308 19.2 72.368 18.8467 71.688 18.14C71.008 17.4333 70.668 16.5067 70.668 15.36C70.668 14.3333 70.8946 13.3667 71.348 12.46C71.8146 11.54 72.468 10.8 73.308 10.24C74.1613 9.68 75.1346 9.4 76.228 9.4C77.4146 9.4 78.3346 9.62 78.988 10.06C79.6413 10.4867 79.968 11.08 79.968 11.84C79.968 12.9067 79.5213 13.7 78.628 14.22C77.7346 14.74 76.6746 15 75.448 15H73.348C73.268 15.4133 73.228 15.7867 73.228 16.12C73.228 16.84 73.3813 17.3867 73.688 17.76C73.9946 18.12 74.4213 18.3 74.968 18.3C75.608 18.3 76.168 18.16 76.648 17.88C77.128 17.5867 77.6146 17.1733 78.108 16.64L78.648 17.1C78.1546 17.7 77.5813 18.2 76.928 18.6C76.288 19 75.4813 19.2 74.508 19.2ZM75.608 14.1C76.1013 14.1 76.5013 13.8533 76.808 13.36C77.1146 12.8667 77.268 12.3333 77.268 11.76C77.268 11.28 77.148 10.92 76.908 10.68C76.6813 10.4267 76.4013 10.3 76.068 10.3C74.788 10.3 73.9346 11.5667 73.508 14.1H75.608ZM84.2842 19.2C83.1376 19.2 82.2709 18.8667 81.6842 18.2C81.0976 17.5333 80.8042 16.6667 80.8042 15.6C80.8042 14.64 81.0109 13.68 81.4242 12.72C81.8509 11.76 82.4576 10.9667 83.2442 10.34C84.0442 9.71333 84.9642 9.4 86.0042 9.4C86.6976 9.4 87.2442 9.58667 87.6442 9.96C87.8442 10.1333 87.9976 10.3133 88.1042 10.5H88.2042L89.0642 9.6H90.7642L89.4642 17L89.1242 19H87.4242L86.8642 18.1H86.7642C86.6042 18.3 86.3909 18.4867 86.1242 18.66C85.6176 19.02 85.0042 19.2 84.2842 19.2ZM84.8442 18.3C85.1242 18.3 85.3776 18.2467 85.6042 18.14C85.8309 18.02 86.0642 17.86 86.3042 17.66C86.5042 17.4867 86.6909 17.2667 86.8642 17L87.8242 11.6C87.7442 11.36 87.6309 11.1467 87.4842 10.96C87.1509 10.52 86.7376 10.3 86.2442 10.3C85.6042 10.3 85.0709 10.6467 84.6442 11.34C84.2309 12.02 83.9242 12.82 83.7242 13.74C83.5376 14.66 83.4442 15.4533 83.4442 16.12C83.4442 17.5733 83.9109 18.3 84.8442 18.3ZM96.3403 19.2C95.6203 19.2 95.067 19.02 94.6803 18.66C94.467 18.4867 94.3136 18.3 94.2203 18.1H94.1203L93.2803 19H91.5803C92.327 14.76 92.8403 11.82 93.1203 10.18C93.4003 8.54 93.5403 7.64667 93.5403 7.5C93.5403 7.12667 93.4536 6.85333 93.2803 6.68C93.107 6.49333 92.8136 6.4 92.4003 6.4H92.2003L92.3003 5.8H94.7003C95.2336 5.8 95.6136 5.9 95.8403 6.1C96.067 6.3 96.1803 6.64667 96.1803 7.14C96.1803 7.51333 96.0403 8.46667 95.7603 10C95.8803 9.93333 96.087 9.83333 96.3803 9.7C96.927 9.5 97.4536 9.4 97.9603 9.4C99.147 9.4 100.034 9.73333 100.62 10.4C101.22 11.0533 101.52 11.94 101.52 13.06C101.52 14.0333 101.314 15 100.9 15.96C100.487 16.9067 99.887 17.6867 99.1003 18.3C98.327 18.9 97.407 19.2 96.3403 19.2ZM96.1003 18.3C96.7536 18.3 97.287 17.96 97.7003 17.28C98.127 16.6 98.427 15.8067 98.6003 14.9C98.787 13.9933 98.8803 13.1933 98.8803 12.5C98.8803 11.78 98.767 11.2333 98.5403 10.86C98.3136 10.4867 97.9336 10.3 97.4003 10.3C97.0003 10.3 96.5736 10.4 96.1203 10.6L95.6003 10.9L94.5203 17C94.6003 17.24 94.7136 17.46 94.8603 17.66C95.1803 18.0867 95.5936 18.3 96.1003 18.3ZM102.656 19C103.403 14.76 103.916 11.82 104.196 10.18C104.476 8.54 104.616 7.64667 104.616 7.5C104.616 7.12667 104.53 6.85333 104.356 6.68C104.183 6.49333 103.89 6.4 103.476 6.4H103.276L103.376 5.8H105.776C106.31 5.8 106.69 5.9 106.916 6.1C107.143 6.3 107.256 6.64667 107.256 7.14C107.256 7.28667 107.15 7.98 106.936 9.22C106.736 10.46 106.37 12.62 105.836 15.7L105.256 19H102.656ZM111.871 19.2C110.671 19.2 109.731 18.8467 109.051 18.14C108.371 17.4333 108.031 16.5067 108.031 15.36C108.031 14.3333 108.258 13.3667 108.711 12.46C109.178 11.54 109.831 10.8 110.671 10.24C111.525 9.68 112.498 9.4 113.591 9.4C114.778 9.4 115.698 9.62 116.351 10.06C117.005 10.4867 117.331 11.08 117.331 11.84C117.331 12.9067 116.885 13.7 115.991 14.22C115.098 14.74 114.038 15 112.811 15H110.711C110.631 15.4133 110.591 15.7867 110.591 16.12C110.591 16.84 110.745 17.3867 111.051 17.76C111.358 18.12 111.785 18.3 112.331 18.3C112.971 18.3 113.531 18.16 114.011 17.88C114.491 17.5867 114.978 17.1733 115.471 16.64L116.011 17.1C115.518 17.7 114.945 18.2 114.291 18.6C113.651 19 112.845 19.2 111.871 19.2ZM112.971 14.1C113.465 14.1 113.865 13.8533 114.171 13.36C114.478 12.8667 114.631 12.3333 114.631 11.76C114.631 11.28 114.511 10.92 114.271 10.68C114.045 10.4267 113.765 10.3 113.431 10.3C112.151 10.3 111.298 11.5667 110.871 14.1H112.971ZM128.988 19.4C127.801 19.4 126.788 19.18 125.948 18.74C125.121 18.2867 124.494 17.66 124.068 16.86C123.654 16.0467 123.448 15.12 123.448 14.08C123.448 12.6933 123.794 11.3333 124.488 10C125.194 8.65333 126.154 7.55333 127.368 6.7C128.594 5.83333 129.954 5.4 131.448 5.4C132.621 5.4 133.694 5.6 134.668 6C135.641 6.38667 136.128 7.08667 136.128 8.1C136.128 8.60667 136.048 9.26 135.888 10.06H135.288C135.261 8.83333 134.961 7.9 134.388 7.26C133.814 6.62 132.981 6.3 131.888 6.3C130.634 6.3 129.581 6.70667 128.728 7.52C127.874 8.33333 127.241 9.36 126.828 10.6C126.428 11.84 126.228 13.0933 126.228 14.36C126.228 15.6133 126.508 16.62 127.068 17.38C127.641 18.1267 128.534 18.5 129.748 18.5C130.681 18.5 131.581 18.2533 132.448 17.76C133.328 17.2667 134.081 16.56 134.708 15.64L135.308 16.18C134.481 17.3 133.568 18.12 132.568 18.64C131.568 19.1467 130.374 19.4 128.988 19.4ZM140.801 19.2C139.521 19.2 138.528 18.8467 137.821 18.14C137.115 17.42 136.761 16.48 136.761 15.32C136.761 14.32 137.008 13.3667 137.501 12.46C138.008 11.54 138.701 10.8 139.581 10.24C140.461 9.68 141.441 9.4 142.521 9.4C143.801 9.4 144.795 9.76 145.501 10.48C146.208 11.1867 146.561 12.12 146.561 13.28C146.561 14.28 146.308 15.24 145.801 16.16C145.308 17.0667 144.621 17.8 143.741 18.36C142.861 18.92 141.881 19.2 140.801 19.2ZM140.961 18.3C141.628 18.3 142.181 17.9867 142.621 17.36C143.061 16.72 143.381 15.9667 143.581 15.1C143.795 14.22 143.901 13.4333 143.901 12.74C143.901 11.9667 143.775 11.3667 143.521 10.94C143.268 10.5133 142.881 10.3 142.361 10.3C141.695 10.3 141.141 10.62 140.701 11.26C140.261 11.8867 139.935 12.64 139.721 13.52C139.521 14.3867 139.421 15.1667 139.421 15.86C139.421 16.6333 139.548 17.2333 139.801 17.66C140.055 18.0867 140.441 18.3 140.961 18.3ZM145.496 22.3C146.136 22.18 146.643 21.84 147.016 21.28C147.389 20.7333 147.689 19.8067 147.916 18.5L149.316 10.5H148.116L148.276 9.6H149.476L149.576 9.06C149.776 7.92667 150.249 7.06667 150.996 6.48C151.756 5.89333 152.789 5.6 154.096 5.6C154.456 5.6 154.796 5.63333 155.116 5.7C155.449 5.75333 155.696 5.83333 155.856 5.94C156.176 6.15333 156.383 6.44 156.476 6.8L155.556 7.5C155.396 7.18 155.189 6.93333 154.936 6.76C154.683 6.58667 154.383 6.5 154.036 6.5C153.569 6.5 153.183 6.69333 152.876 7.08C152.569 7.46667 152.336 8.12667 152.176 9.06L152.076 9.6H154.676L154.516 10.5H151.916L150.516 18.5C150.316 19.62 150.029 20.4867 149.656 21.1C149.283 21.7133 148.763 22.1467 148.096 22.4C147.429 22.6667 146.536 22.8 145.416 22.8L145.496 22.3ZM152.39 22.3C153.03 22.18 153.537 21.84 153.91 21.28C154.284 20.7333 154.584 19.8067 154.81 18.5L156.21 10.5H155.01L155.17 9.6H156.37L156.47 9.06C156.67 7.92667 157.144 7.06667 157.89 6.48C158.65 5.89333 159.684 5.6 160.99 5.6C161.35 5.6 161.69 5.63333 162.01 5.7C162.344 5.75333 162.59 5.83333 162.75 5.94C163.07 6.15333 163.277 6.44 163.37 6.8L162.45 7.5C162.29 7.18 162.084 6.93333 161.83 6.76C161.577 6.58667 161.277 6.5 160.93 6.5C160.464 6.5 160.077 6.69333 159.77 7.08C159.464 7.46667 159.23 8.12667 159.07 9.06L158.97 9.6H161.57L161.41 10.5H158.81L157.41 18.5C157.21 19.62 156.924 20.4867 156.55 21.1C156.177 21.7133 155.657 22.1467 154.99 22.4C154.324 22.6667 153.43 22.8 152.31 22.8L152.39 22.3ZM165.231 19.2C164.031 19.2 163.091 18.8467 162.411 18.14C161.731 17.4333 161.391 16.5067 161.391 15.36C161.391 14.3333 161.617 13.3667 162.071 12.46C162.537 11.54 163.191 10.8 164.031 10.24C164.884 9.68 165.857 9.4 166.951 9.4C168.137 9.4 169.057 9.62 169.711 10.06C170.364 10.4867 170.691 11.08 170.691 11.84C170.691 12.9067 170.244 13.7 169.351 14.22C168.457 14.74 167.397 15 166.171 15H164.071C163.991 15.4133 163.951 15.7867 163.951 16.12C163.951 16.84 164.104 17.3867 164.411 17.76C164.717 18.12 165.144 18.3 165.691 18.3C166.331 18.3 166.891 18.16 167.371 17.88C167.851 17.5867 168.337 17.1733 168.831 16.64L169.371 17.1C168.877 17.7 168.304 18.2 167.651 18.6C167.011 19 166.204 19.2 165.231 19.2ZM166.331 14.1C166.824 14.1 167.224 13.8533 167.531 13.36C167.837 12.8667 167.991 12.3333 167.991 11.76C167.991 11.28 167.871 10.92 167.631 10.68C167.404 10.4267 167.124 10.3 166.791 10.3C165.511 10.3 164.657 11.5667 164.231 14.1H166.331ZM175.387 19.2C174.187 19.2 173.247 18.8467 172.567 18.14C171.887 17.4333 171.547 16.5067 171.547 15.36C171.547 14.3333 171.774 13.3667 172.227 12.46C172.694 11.54 173.347 10.8 174.187 10.24C175.04 9.68 176.014 9.4 177.107 9.4C178.294 9.4 179.214 9.62 179.867 10.06C180.52 10.4867 180.847 11.08 180.847 11.84C180.847 12.9067 180.4 13.7 179.507 14.22C178.614 14.74 177.554 15 176.327 15H174.227C174.147 15.4133 174.107 15.7867 174.107 16.12C174.107 16.84 174.26 17.3867 174.567 17.76C174.874 18.12 175.3 18.3 175.847 18.3C176.487 18.3 177.047 18.16 177.527 17.88C178.007 17.5867 178.494 17.1733 178.987 16.64L179.527 17.1C179.034 17.7 178.46 18.2 177.807 18.6C177.167 19 176.36 19.2 175.387 19.2ZM176.487 14.1C176.98 14.1 177.38 13.8533 177.687 13.36C177.994 12.8667 178.147 12.3333 178.147 11.76C178.147 11.28 178.027 10.92 177.787 10.68C177.56 10.4267 177.28 10.3 176.947 10.3C175.667 10.3 174.814 11.5667 174.387 14.1H176.487Z" fill="white"/>
<path d="M22.0001 3.4099L21.8801 2.1499L20.6801 2.5499C18.6235 3.26445 16.4273 3.48372 14.2701 3.1899C12.0032 2.83811 9.68298 3.15072 7.59006 4.0899C6.48054 4.56235 5.50681 5.30482 4.75754 6.24971C4.00826 7.19461 3.50723 8.31191 3.30006 9.4999C3.03144 11.0346 3.16582 12.6127 3.69006 14.0799C4.02761 13.318 4.42206 12.5826 4.87006 11.8799C5.88626 10.3847 7.29434 9.19808 8.94006 8.4499C10.5255 7.72603 12.2584 7.38355 14.0001 7.4499C12.3421 7.7034 10.7551 8.29939 9.34006 9.1999C8.65753 9.62875 8.03249 10.1429 7.48006 10.7299C6.95172 11.3166 6.48588 11.9567 6.09006 12.6399C5.34659 14.0679 4.81758 15.5977 4.52006 17.1799C4.19937 18.7672 4.02531 20.3807 4.00006 21.9999H6.00006C6.09406 20.5477 6.29122 19.1041 6.59006 17.6799C7.97749 18.4291 9.53341 18.8112 11.1101 18.7899C12.5805 18.7889 14.0359 18.4931 15.3901 17.9199C23.0001 14.6699 22.0001 3.8599 22.0001 3.4099Z" fill="white"/>
</svg>
